<svg xmlns="http://www.w3.org/2000/svg" viewBox="0 0 24 24" fill="white">
  <path d="M12 15.5A3.5 3.5 0 0 1 8.5 12 3.5 3.5 0 0 1 12 8.5a3.5 3.5 0 0 1 3.5 3.5 3.5 3.5 0 0 1-3.5 3.5m7.43-2.92c.04-.34.07-.69.07-1.08s-.03-.74-.07-1.08l2.32-1.82c.21-.16.27-.46.13-.7l-2.2-3.81c-.14-.24-.42-.32-.67-.24l-2.73 1.1c-.57-.44-1.18-.8-1.85-1.07L14.02 2.1C13.96 1.84 13.72 1.6 13.44 1.6H10.56c-.28 0-.52.24-.58.5L9.62 4.88C8.95 5.15 8.34 5.51 7.77 5.95L5.04 4.85c-.25-.08-.53 0-.67.24L2.17 8.9c-.14.24-.08.54.13.7l2.32 1.82C4.58 11.76 4.5 12.12 4.5 12.5s.03.74.07 1.08L2.3 15.4c-.21.16-.27.46-.13.7l2.2 3.81c.14.24.42.32.67.24l2.73-1.1c.57.44 1.18.8 1.85 1.07l.36 2.78c.06.26.3.5.58.5h2.88c.28 0 .52-.24.58-.5l.36-2.78c.67-.27 1.28-.63 1.85-1.07l2.73 1.1c.25.08.53 0 .67-.24l2.2-3.81c.14-.24.08-.54-.13-.7l-2.32-1.82z"/>
</svg>
